<?xml version="1.0" encoding="UTF-8" standalone="no" ?>
<!DOCTYPE svg PUBLIC "-//W3C//DTD SVG 1.1//EN" "http://www.w3.org/Graphics/SVG/1.1/DTD/svg11.dtd">
<svg xmlns="http://www.w3.org/2000/svg" xmlns:xlink="http://www.w3.org/1999/xlink" version="1.1" width="317" height="261" viewBox="0 0 317 261" xml:space="preserve">
<desc>Created with Fabric.js 3.6.3</desc>
<defs>
</defs>
<g transform="matrix(1 0 0 1 158.95 130.6)" id="path0"  >
<path style="stroke: none; stroke-width: 1; stroke-dasharray: none; stroke-linecap: butt; stroke-dashoffset: 0; stroke-linejoin: miter; stroke-miterlimit: 4; fill: rgb(255,255,255); fill-rule: evenodd; opacity: 1;"  transform=" translate(-200, -212.31)" d="M 43.826 84.573 L 41.554 86.845 L 41.795 142.316 L 42.035 197.788 L 44.483 202.773 C 45.83 205.514 48.02 209.133 49.351 210.815 C 50.681 212.496 52.566 214.966 53.54 216.303 C 54.513 217.64 57.102 221.011 59.292 223.794 C 61.482 226.577 64.071 229.962 65.044 231.316 C 66.018 232.67 68.606 236.055 70.796 238.838 C 72.987 241.621 75.575 245.006 76.549 246.36 C 77.522 247.715 80.111 251.1 82.301 253.882 C 84.491 256.665 87.08 260.05 88.053 261.404 C 89.027 262.759 91.615 266.144 93.805 268.927 C 95.996 271.709 98.584 275.094 99.558 276.449 C 100.531 277.803 103.119 281.188 105.31 283.971 C 107.5 286.754 110.088 290.139 111.062 291.493 C 112.035 292.847 114.624 296.232 116.814 299.015 C 119.004 301.798 121.593 305.183 122.566 306.537 C 123.54 307.892 126.128 311.277 128.319 314.059 C 130.509 316.842 133.097 320.235 134.071 321.599 C 149.606 343.37 145.437 341.976 196.018 342.311 C 249.007 342.662 249.586 342.566 249.537 333.447 C 249.516 329.287 251.102 331.578 227.876 302.163 C 222.035 294.765 211.681 281.62 204.867 272.952 C 198.053 264.283 187.884 251.392 182.27 244.303 C 176.655 237.215 170.689 229.624 169.012 227.434 C 167.335 225.243 161.559 217.876 156.177 211.062 C 141.976 193.085 117.523 162.069 88.324 125 C 60.116 89.189 56.324 84.452 55.022 83.407 C 52.515 81.395 46.364 82.035 43.826 84.573 M 345.311 83.692 C 344.218 84.457 341.669 87.344 339.645 90.108 C 337.621 92.871 335.712 95.332 335.404 95.575 C 335.095 95.819 331.701 100.199 327.86 105.31 C 324.019 110.42 320.46 115.086 319.951 115.677 C 318.473 117.396 317.475 118.678 312.865 124.779 C 310.475 127.942 307.385 131.925 305.998 133.628 C 304.612 135.332 303.18 137.124 302.816 137.611 C 301.824 138.935 282.553 163.918 269.027 181.416 C 264.403 187.397 257.633 196.158 253.982 200.885 C 250.332 205.612 243.562 214.356 238.938 220.318 C 223.442 240.297 223.298 240.587 226.149 246.1 C 228.353 250.362 229.268 250.442 275.809 250.442 C 331.424 250.442 323.221 253.794 343.907 222.618 L 357.965 201.43 L 358.205 144.172 L 358.445 86.914 L 355.703 84.608 C 352.55 81.955 348.323 81.582 345.311 83.692" stroke-linecap="round" />
</g>
</svg>